<svg width="120" height="120" viewBox="0 0 120 120" fill="none" xmlns="http://www.w3.org/2000/svg">
<path d="M71.4666 20.3098C72.6633 16.2427 71.6604 11.6604 68.4574 8.45742L60 0L51.5426 8.45719C49.2834 10.7163 48.0391 13.7196 48.0391 16.9144C48.0391 18.0806 48.207 19.2211 48.5273 20.3095H39.6417V32.2704C39.6417 38.8655 45.0073 44.231 51.6023 44.231H56.437V37.1051V32.2706V28.7906H63.563V32.2702V37.1046V44.2305H68.3977C74.9927 44.2305 80.3583 38.865 80.3583 32.2699V20.3098H71.4666Z" fill="#053A3E"/>
<path d="M90.1235 100.001L86.2043 94.7053H33.7959L29.8767 100.001C27.0429 103.829 26.6144 108.85 28.758 113.104C30.9014 117.358 35.1923 120 39.9555 120H80.0442C84.8074 120 89.0981 117.358 91.2422 113.104C93.3858 108.85 92.9573 103.829 90.1235 100.001Z" fill="#053A3E"/>
<path d="M73.9905 78.2043V48.386H46.0092V54.0869H62.1377V61.2129H46.0092V65.9636H62.1377V73.0896H46.0092V78.2043L39.0703 87.5793H80.9297L73.9905 78.2043Z" fill="#053A3E"/>
</svg>
