<svg width="165" height="60" viewBox="0 0 165 60" fill="none" xmlns="http://www.w3.org/2000/svg">
<mask id="path-1-inside-1_7_168" fill="white">
<path d="M0 0H87V60H0V0Z"/>
</mask>
<path d="M0 0V-4H-4V0H0ZM0 60H-4V64H0V60ZM0 4H87V-4H0V4ZM87 56H0V64H87V56ZM4 60V0H-4V60H4Z" fill="white" mask="url(#path-1-inside-1_7_168)"/>
<path d="M26.74 29.8C27.5533 29.9733 28.2067 30.38 28.7 31.02C29.1933 31.6467 29.44 32.3667 29.44 33.18C29.44 34.3533 29.0267 35.2867 28.2 35.98C27.3867 36.66 26.2467 37 24.78 37H18.24V22.96H24.56C25.9867 22.96 27.1 23.2867 27.9 23.94C28.7133 24.5933 29.12 25.48 29.12 26.6C29.12 27.4267 28.9 28.1133 28.46 28.66C28.0333 29.2067 27.46 29.5867 26.74 29.8ZM21.66 28.64H23.9C24.46 28.64 24.8867 28.52 25.18 28.28C25.4867 28.0267 25.64 27.66 25.64 27.18C25.64 26.7 25.4867 26.3333 25.18 26.08C24.8867 25.8267 24.46 25.7 23.9 25.7H21.66V28.64ZM24.18 34.24C24.7533 34.24 25.1933 34.1133 25.5 33.86C25.82 33.5933 25.98 33.2133 25.98 32.72C25.98 32.2267 25.8133 31.84 25.48 31.56C25.16 31.28 24.7133 31.14 24.14 31.14H21.66V34.24H24.18ZM30.7436 31.4C30.7436 30.2533 30.9569 29.2467 31.3836 28.38C31.8236 27.5133 32.4169 26.8467 33.1636 26.38C33.9103 25.9133 34.7436 25.68 35.6636 25.68C36.4503 25.68 37.1369 25.84 37.7236 26.16C38.3236 26.48 38.7836 26.9 39.1036 27.42V25.84H42.5236V37H39.1036V35.42C38.7703 35.94 38.3036 36.36 37.7036 36.68C37.1169 37 36.4303 37.16 35.6436 37.16C34.7369 37.16 33.9103 36.9267 33.1636 36.46C32.4169 35.98 31.8236 35.3067 31.3836 34.44C30.9569 33.56 30.7436 32.5467 30.7436 31.4ZM39.1036 31.42C39.1036 30.5667 38.8636 29.8933 38.3836 29.4C37.9169 28.9067 37.3436 28.66 36.6636 28.66C35.9836 28.66 35.4036 28.9067 34.9236 29.4C34.4569 29.88 34.2236 30.5467 34.2236 31.4C34.2236 32.2533 34.4569 32.9333 34.9236 33.44C35.4036 33.9333 35.9836 34.18 36.6636 34.18C37.3436 34.18 37.9169 33.9333 38.3836 33.44C38.8636 32.9467 39.1036 32.2733 39.1036 31.42ZM51.7978 25.72C53.1045 25.72 54.1445 26.1467 54.9178 27C55.7045 27.84 56.0978 29 56.0978 30.48V37H52.6978V30.94C52.6978 30.1933 52.5045 29.6133 52.1178 29.2C51.7311 28.7867 51.2111 28.58 50.5578 28.58C49.9045 28.58 49.3845 28.7867 48.9978 29.2C48.6111 29.6133 48.4178 30.1933 48.4178 30.94V37H44.9978V25.84H48.4178V27.32C48.7645 26.8267 49.2311 26.44 49.8178 26.16C50.4045 25.8667 51.0645 25.72 51.7978 25.72ZM64.6944 34.1V37H62.9544C61.7144 37 60.7477 36.7 60.0544 36.1C59.361 35.4867 59.0144 34.4933 59.0144 33.12V28.68H57.6544V25.84H59.0144V23.12H62.4344V25.84H64.6744V28.68H62.4344V33.16C62.4344 33.4933 62.5144 33.7333 62.6744 33.88C62.8344 34.0267 63.101 34.1 63.4744 34.1H64.6944ZM77.6194 25.84V37H74.1994V35.48C73.8527 35.9733 73.3794 36.3733 72.7794 36.68C72.1927 36.9733 71.5394 37.12 70.8194 37.12C69.966 37.12 69.2127 36.9333 68.5594 36.56C67.906 36.1733 67.3994 35.62 67.0394 34.9C66.6794 34.18 66.4994 33.3333 66.4994 32.36V25.84H69.8994V31.9C69.8994 32.6467 70.0927 33.2267 70.4794 33.64C70.866 34.0533 71.386 34.26 72.0394 34.26C72.706 34.26 73.2327 34.0533 73.6194 33.64C74.006 33.2267 74.1994 32.6467 74.1994 31.9V25.84H77.6194ZM79.3959 31.4C79.3959 30.2533 79.6093 29.2467 80.0359 28.38C80.4759 27.5133 81.0693 26.8467 81.8159 26.38C82.5626 25.9133 83.3959 25.68 84.3159 25.68C85.0493 25.68 85.7159 25.8333 86.3159 26.14C86.9293 26.4467 87.4093 26.86 87.7559 27.38V22.2H91.1759V37H87.7559V35.4C87.4359 35.9333 86.9759 36.36 86.3759 36.68C85.7893 37 85.1026 37.16 84.3159 37.16C83.3959 37.16 82.5626 36.9267 81.8159 36.46C81.0693 35.98 80.4759 35.3067 80.0359 34.44C79.6093 33.56 79.3959 32.5467 79.3959 31.4ZM87.7559 31.42C87.7559 30.5667 87.5159 29.8933 87.0359 29.4C86.5693 28.9067 85.9959 28.66 85.3159 28.66C84.6359 28.66 84.0559 28.9067 83.5759 29.4C83.1093 29.88 82.8759 30.5467 82.8759 31.4C82.8759 32.2533 83.1093 32.9333 83.5759 33.44C84.0559 33.9333 84.6359 34.18 85.3159 34.18C85.9959 34.18 86.5693 33.9333 87.0359 33.44C87.5159 32.9467 87.7559 32.2733 87.7559 31.42ZM95.3702 24.68C94.7702 24.68 94.2768 24.5067 93.8902 24.16C93.5168 23.8 93.3302 23.36 93.3302 22.84C93.3302 22.3067 93.5168 21.8667 93.8902 21.52C94.2768 21.16 94.7702 20.98 95.3702 20.98C95.9568 20.98 96.4368 21.16 96.8102 21.52C97.1968 21.8667 97.3902 22.3067 97.3902 22.84C97.3902 23.36 97.1968 23.8 96.8102 24.16C96.4368 24.5067 95.9568 24.68 95.3702 24.68ZM97.0702 25.84V37H93.6502V25.84H97.0702ZM102.969 27.7C103.369 27.0867 103.869 26.6067 104.469 26.26C105.069 25.9 105.735 25.72 106.469 25.72V29.34H105.529C104.675 29.34 104.035 29.5267 103.609 29.9C103.182 30.26 102.969 30.9 102.969 31.82V37H99.5486V25.84H102.969V27.7ZM109.823 24.68C109.223 24.68 108.73 24.5067 108.343 24.16C107.97 23.8 107.783 23.36 107.783 22.84C107.783 22.3067 107.97 21.8667 108.343 21.52C108.73 21.16 109.223 20.98 109.823 20.98C110.41 20.98 110.89 21.16 111.263 21.52C111.65 21.8667 111.843 22.3067 111.843 22.84C111.843 23.36 111.65 23.8 111.263 24.16C110.89 24.5067 110.41 24.68 109.823 24.68ZM111.523 25.84V37H108.103V25.84H111.523ZM115.602 37.16C115.002 37.16 114.508 36.9867 114.122 36.64C113.748 36.28 113.562 35.84 113.562 35.32C113.562 34.7867 113.748 34.34 114.122 33.98C114.508 33.62 115.002 33.44 115.602 33.44C116.188 33.44 116.668 33.62 117.042 33.98C117.428 34.34 117.622 34.7867 117.622 35.32C117.622 35.84 117.428 36.28 117.042 36.64C116.668 36.9867 116.188 37.16 115.602 37.16ZM118.966 31.42C118.966 30.26 119.2 29.2467 119.666 28.38C120.146 27.5133 120.806 26.8467 121.646 26.38C122.5 25.9133 123.473 25.68 124.566 25.68C125.966 25.68 127.133 26.0467 128.066 26.78C129.013 27.5133 129.633 28.5467 129.926 29.88H126.286C125.98 29.0267 125.386 28.6 124.506 28.6C123.88 28.6 123.38 28.8467 123.006 29.34C122.633 29.82 122.446 30.5133 122.446 31.42C122.446 32.3267 122.633 33.0267 123.006 33.52C123.38 34 123.88 34.24 124.506 34.24C125.386 34.24 125.98 33.8133 126.286 32.96H129.926C129.633 34.2667 129.013 35.2933 128.066 36.04C127.12 36.7867 125.953 37.16 124.566 37.16C123.473 37.16 122.5 36.9267 121.646 36.46C120.806 35.9933 120.146 35.3267 119.666 34.46C119.2 33.5933 118.966 32.58 118.966 31.42ZM136.836 37.16C135.742 37.16 134.756 36.9267 133.876 36.46C133.009 35.9933 132.322 35.3267 131.816 34.46C131.322 33.5933 131.076 32.58 131.076 31.42C131.076 30.2733 131.329 29.2667 131.836 28.4C132.342 27.52 133.036 26.8467 133.916 26.38C134.796 25.9133 135.782 25.68 136.876 25.68C137.969 25.68 138.956 25.9133 139.836 26.38C140.716 26.8467 141.409 27.52 141.916 28.4C142.422 29.2667 142.676 30.2733 142.676 31.42C142.676 32.5667 142.416 33.58 141.896 34.46C141.389 35.3267 140.689 35.9933 139.796 36.46C138.916 36.9267 137.929 37.16 136.836 37.16ZM136.836 34.2C137.489 34.2 138.042 33.96 138.496 33.48C138.962 33 139.196 32.3133 139.196 31.42C139.196 30.5267 138.969 29.84 138.516 29.36C138.076 28.88 137.529 28.64 136.876 28.64C136.209 28.64 135.656 28.88 135.216 29.36C134.776 29.8267 134.556 30.5133 134.556 31.42C134.556 32.3133 134.769 33 135.196 33.48C135.636 33.96 136.182 34.2 136.836 34.2ZM158.73 25.72C160.117 25.72 161.217 26.14 162.03 26.98C162.857 27.82 163.27 28.9867 163.27 30.48V37H159.87V30.94C159.87 30.22 159.677 29.6667 159.29 29.28C158.917 28.88 158.397 28.68 157.73 28.68C157.063 28.68 156.537 28.88 156.15 29.28C155.777 29.6667 155.59 30.22 155.59 30.94V37H152.19V30.94C152.19 30.22 151.997 29.6667 151.61 29.28C151.237 28.88 150.717 28.68 150.05 28.68C149.383 28.68 148.857 28.88 148.47 29.28C148.097 29.6667 147.91 30.22 147.91 30.94V37H144.49V25.84H147.91V27.24C148.257 26.7733 148.71 26.4067 149.27 26.14C149.83 25.86 150.463 25.72 151.17 25.72C152.01 25.72 152.757 25.9 153.41 26.26C154.077 26.62 154.597 27.1333 154.97 27.8C155.357 27.1867 155.883 26.6867 156.55 26.3C157.217 25.9133 157.943 25.72 158.73 25.72Z" fill="white"/>
</svg>
