<svg width="527" height="165" viewBox="0 0 527 165" fill="none" xmlns="http://www.w3.org/2000/svg">
<mask id="path-1-inside-1_76_2" fill="white">
<path d="M0 0H351V165H0V0Z"/>
</mask>
<path d="M0 0V-8H-8V0H0ZM0 165H-8V173H0V165ZM0 8H351V-8H0V8ZM351 157H0V173H351V157ZM8 165V0H-8V165H8Z" fill="#053A3E" mask="url(#path-1-inside-1_76_2)"/>
<path d="M71.293 81.96C73.8957 82.5147 75.9863 83.816 77.565 85.864C79.1437 87.8693 79.933 90.1733 79.933 92.776C79.933 96.5307 78.6103 99.5173 75.965 101.736C73.3623 103.912 69.7143 105 65.021 105H44.093V60.072H64.317C68.8823 60.072 72.445 61.1173 75.005 63.208C77.6077 65.2987 78.909 68.136 78.909 71.72C78.909 74.3653 78.205 76.5627 76.797 78.312C75.4317 80.0613 73.597 81.2773 71.293 81.96ZM55.037 78.248H62.205C63.997 78.248 65.3623 77.864 66.301 77.096C67.2823 76.2853 67.773 75.112 67.773 73.576C67.773 72.04 67.2823 70.8667 66.301 70.056C65.3623 69.2453 63.997 68.84 62.205 68.84H55.037V78.248ZM63.101 96.168C64.9357 96.168 66.3437 95.7627 67.325 94.952C68.349 94.0987 68.861 92.8827 68.861 91.304C68.861 89.7253 68.3277 88.488 67.261 87.592C66.237 86.696 64.8077 86.248 62.973 86.248H55.037V96.168H63.101ZM84.1045 87.08C84.1045 83.4107 84.7872 80.1893 86.1525 77.416C87.5605 74.6427 89.4592 72.5093 91.8485 71.016C94.2378 69.5227 96.9045 68.776 99.8485 68.776C102.366 68.776 104.563 69.288 106.441 70.312C108.361 71.336 109.833 72.68 110.857 74.344V69.288H121.801V105H110.857V99.944C109.79 101.608 108.297 102.952 106.377 103.976C104.499 105 102.302 105.512 99.7845 105.512C96.8832 105.512 94.2378 104.765 91.8485 103.272C89.4592 101.736 87.5605 99.5813 86.1525 96.808C84.7872 93.992 84.1045 90.7493 84.1045 87.08ZM110.857 87.144C110.857 84.4133 110.089 82.2587 108.553 80.68C107.059 79.1013 105.225 78.312 103.049 78.312C100.873 78.312 99.0165 79.1013 97.4805 80.68C95.9872 82.216 95.2405 84.3493 95.2405 87.08C95.2405 89.8107 95.9872 91.9867 97.4805 93.608C99.0165 95.1867 100.873 95.976 103.049 95.976C105.225 95.976 107.059 95.1867 108.553 93.608C110.089 92.0293 110.857 89.8747 110.857 87.144ZM151.478 68.904C155.659 68.904 158.987 70.2693 161.462 73C163.979 75.688 165.238 79.4 165.238 84.136V105H154.358V85.608C154.358 83.2187 153.739 81.3627 152.502 80.04C151.265 78.7173 149.601 78.056 147.51 78.056C145.419 78.056 143.755 78.7173 142.518 80.04C141.281 81.3627 140.662 83.2187 140.662 85.608V105H129.718V69.288H140.662V74.024C141.771 72.4453 143.265 71.208 145.142 70.312C147.019 69.3733 149.131 68.904 151.478 68.904ZM192.747 95.72V105H187.179C183.211 105 180.118 104.04 177.899 102.12C175.68 100.157 174.571 96.9787 174.571 92.584V78.376H170.219V69.288H174.571V60.584H185.515V69.288H192.683V78.376H185.515V92.712C185.515 93.7787 185.771 94.5467 186.283 95.016C186.795 95.4853 187.648 95.72 188.843 95.72H192.747ZM234.107 69.288V105H223.163V100.136C222.054 101.715 220.539 102.995 218.619 103.976C216.742 104.915 214.651 105.384 212.347 105.384C209.616 105.384 207.206 104.787 205.115 103.592C203.024 102.355 201.403 100.584 200.251 98.28C199.099 95.976 198.523 93.2667 198.523 90.152V69.288H209.403V88.68C209.403 91.0693 210.022 92.9253 211.259 94.248C212.496 95.5707 214.16 96.232 216.251 96.232C218.384 96.232 220.07 95.5707 221.307 94.248C222.544 92.9253 223.163 91.0693 223.163 88.68V69.288H234.107ZM239.792 87.08C239.792 83.4107 240.475 80.1893 241.84 77.416C243.248 74.6427 245.147 72.5093 247.536 71.016C249.925 69.5227 252.592 68.776 255.536 68.776C257.883 68.776 260.016 69.2667 261.936 70.248C263.899 71.2293 265.435 72.552 266.544 74.216V57.64H277.488V105H266.544V99.88C265.52 101.587 264.048 102.952 262.128 103.976C260.251 105 258.053 105.512 255.536 105.512C252.592 105.512 249.925 104.765 247.536 103.272C245.147 101.736 243.248 99.5813 241.84 96.808C240.475 93.992 239.792 90.7493 239.792 87.08ZM266.544 87.144C266.544 84.4133 265.776 82.2587 264.24 80.68C262.747 79.1013 260.912 78.312 258.736 78.312C256.56 78.312 254.704 79.1013 253.168 80.68C251.675 82.216 250.928 84.3493 250.928 87.08C250.928 89.8107 251.675 91.9867 253.168 93.608C254.704 95.1867 256.56 95.976 258.736 95.976C260.912 95.976 262.747 95.1867 264.24 93.608C265.776 92.0293 266.544 89.8747 266.544 87.144ZM290.91 65.576C288.99 65.576 287.411 65.0213 286.174 63.912C284.979 62.76 284.382 61.352 284.382 59.688C284.382 57.9813 284.979 56.5733 286.174 55.464C287.411 54.312 288.99 53.736 290.91 53.736C292.787 53.736 294.323 54.312 295.518 55.464C296.755 56.5733 297.374 57.9813 297.374 59.688C297.374 61.352 296.755 62.76 295.518 63.912C294.323 65.0213 292.787 65.576 290.91 65.576ZM296.35 69.288V105H285.406V69.288H296.35ZM315.225 75.24C316.505 73.2773 318.105 71.7413 320.025 70.632C321.945 69.48 324.078 68.904 326.425 68.904V80.488H323.417C320.686 80.488 318.638 81.0853 317.273 82.28C315.907 83.432 315.225 85.48 315.225 88.424V105H304.281V69.288H315.225V75.24ZM337.16 65.576C335.24 65.576 333.661 65.0213 332.424 63.912C331.229 62.76 330.632 61.352 330.632 59.688C330.632 57.9813 331.229 56.5733 332.424 55.464C333.661 54.312 335.24 53.736 337.16 53.736C339.037 53.736 340.573 54.312 341.768 55.464C343.005 56.5733 343.624 57.9813 343.624 59.688C343.624 61.352 343.005 62.76 341.768 63.912C340.573 65.0213 339.037 65.576 337.16 65.576ZM342.6 69.288V105H331.656V69.288H342.6ZM355.651 105.512C353.731 105.512 352.152 104.957 350.915 103.848C349.72 102.696 349.123 101.288 349.123 99.624C349.123 97.9173 349.72 96.488 350.915 95.336C352.152 94.184 353.731 93.608 355.651 93.608C357.528 93.608 359.064 94.184 360.259 95.336C361.496 96.488 362.115 97.9173 362.115 99.624C362.115 101.288 361.496 102.696 360.259 103.848C359.064 104.957 357.528 105.512 355.651 105.512ZM366.417 87.144C366.417 83.432 367.164 80.1893 368.657 77.416C370.193 74.6427 372.305 72.5093 374.993 71.016C377.724 69.5227 380.838 68.776 384.337 68.776C388.817 68.776 392.55 69.9493 395.537 72.296C398.566 74.6427 400.55 77.9493 401.489 82.216H389.841C388.86 79.4853 386.961 78.12 384.145 78.12C382.14 78.12 380.54 78.9093 379.345 80.488C378.15 82.024 377.553 84.2427 377.553 87.144C377.553 90.0453 378.15 92.2853 379.345 93.864C380.54 95.4 382.14 96.168 384.145 96.168C386.961 96.168 388.86 94.8027 389.841 92.072H401.489C400.55 96.2533 398.566 99.5387 395.537 101.928C392.508 104.317 388.774 105.512 384.337 105.512C380.838 105.512 377.724 104.765 374.993 103.272C372.305 101.779 370.193 99.6453 368.657 96.872C367.164 94.0987 366.417 90.856 366.417 87.144ZM423.599 105.512C420.1 105.512 416.943 104.765 414.127 103.272C411.354 101.779 409.156 99.6453 407.535 96.872C405.956 94.0987 405.167 90.856 405.167 87.144C405.167 83.4747 405.978 80.2533 407.599 77.48C409.22 74.664 411.439 72.5093 414.255 71.016C417.071 69.5227 420.228 68.776 423.727 68.776C427.226 68.776 430.383 69.5227 433.199 71.016C436.015 72.5093 438.234 74.664 439.855 77.48C441.476 80.2533 442.287 83.4747 442.287 87.144C442.287 90.8133 441.455 94.056 439.791 96.872C438.17 99.6453 435.93 101.779 433.071 103.272C430.255 104.765 427.098 105.512 423.599 105.512ZM423.599 96.04C425.69 96.04 427.46 95.272 428.911 93.736C430.404 92.2 431.151 90.0027 431.151 87.144C431.151 84.2853 430.426 82.088 428.975 80.552C427.567 79.016 425.818 78.248 423.727 78.248C421.594 78.248 419.823 79.016 418.415 80.552C417.007 82.0453 416.303 84.2427 416.303 87.144C416.303 90.0027 416.986 92.2 418.351 93.736C419.759 95.272 421.508 96.04 423.599 96.04ZM493.661 68.904C498.098 68.904 501.618 70.248 504.221 72.936C506.866 75.624 508.189 79.3573 508.189 84.136V105H497.309V85.608C497.309 83.304 496.69 81.5333 495.453 80.296C494.258 79.016 492.594 78.376 490.461 78.376C488.328 78.376 486.642 79.016 485.405 80.296C484.21 81.5333 483.613 83.304 483.613 85.608V105H472.733V85.608C472.733 83.304 472.114 81.5333 470.877 80.296C469.682 79.016 468.018 78.376 465.885 78.376C463.752 78.376 462.066 79.016 460.829 80.296C459.634 81.5333 459.037 83.304 459.037 85.608V105H448.093V69.288H459.037V73.768C460.146 72.2747 461.597 71.1013 463.389 70.248C465.181 69.352 467.208 68.904 469.469 68.904C472.157 68.904 474.546 69.48 476.637 70.632C478.77 71.784 480.434 73.4267 481.629 75.56C482.866 73.5973 484.552 71.9973 486.685 70.76C488.818 69.5227 491.144 68.904 493.661 68.904Z" fill="#053A3E"/>
</svg>
