<svg width="120" height="120" viewBox="0 0 120 120" fill="none" xmlns="http://www.w3.org/2000/svg">
<path fill-rule="evenodd" clip-rule="evenodd" d="M60 110C36.4298 110 24.6446 110 17.3223 102.677C10 95.3555 10 83.57 10 60C10 36.4298 10 24.6446 17.3223 17.3223C24.6446 10 36.4298 10 60 10C83.57 10 95.3555 10 102.677 17.3223C110 24.6446 110 36.4298 110 60C110 83.57 110 95.3555 102.677 102.677C95.3555 110 83.57 110 60 110ZM60 38.75C56.8935 38.75 54.375 41.2684 54.375 44.375C54.375 46.446 52.696 48.125 50.625 48.125C48.554 48.125 46.875 46.446 46.875 44.375C46.875 37.1263 52.7515 31.25 60 31.25C67.2485 31.25 73.125 37.1263 73.125 44.375C73.125 47.9292 71.7075 51.16 69.415 53.52C68.9535 53.9945 68.5135 54.4345 68.0935 54.854C67.0145 55.932 66.069 56.8765 65.2395 57.9425C64.1445 59.3495 63.75 60.384 63.75 61.25V65C63.75 67.071 62.071 68.75 60 68.75C57.929 68.75 56.25 67.071 56.25 65V61.25C56.25 57.974 57.775 55.322 59.321 53.336C60.4645 51.8665 61.902 50.4315 63.069 49.2673C63.421 48.916 63.748 48.5894 64.035 48.2938C65.023 47.2771 65.625 45.9002 65.625 44.375C65.625 41.2684 63.1065 38.75 60 38.75ZM60 85C62.7615 85 65 82.7615 65 80C65 77.2385 62.7615 75 60 75C57.2385 75 55 77.2385 55 80C55 82.7615 57.2385 85 60 85Z" fill="#053A3E"/>
</svg>
