<svg width="120" height="120" viewBox="0 0 120 120" fill="none" xmlns="http://www.w3.org/2000/svg">
<g clip-path="url(#clip0_73_173)">
<path d="M0 0V15C8.25 15 15 21.75 15 30V90C15 98.25 8.25 105 0 105V120H82.5C103.2 120 120 103.2 120 82.5C120 67.5 111.15 54.75 98.4 48.75C102.45 43.65 105 37.05 105 30C105 13.5 91.65 0 75 0H0ZM45 15H60C68.25 15 75 21.75 75 30C75 38.25 68.25 45 60 45H45V15ZM45 60H67.5C79.95 60 90 70.05 90 82.5C90 94.95 79.95 105 67.5 105H45V60Z" fill="#053A3E"/>
</g>
<defs>
<clipPath id="clip0_73_173">
<rect width="120" height="120" fill="white"/>
</clipPath>
</defs>
</svg>
