<svg width="432" height="432" viewBox="0 0 432 432" fill="none" xmlns="http://www.w3.org/2000/svg">
<g clip-path="url(#clip0_123_103)">
<path d="M432 0H0V432H432V0Z" fill="white"/>
<path fill-rule="evenodd" clip-rule="evenodd" d="M172.058 66.5496C193.594 36.3989 238.405 36.3989 259.942 66.5496L263.371 71.3497C267.16 76.6561 273.524 79.4974 280.004 78.7774L295.286 77.0792C329.681 73.2578 358.742 102.319 354.92 136.712L353.223 151.995C352.503 158.476 355.343 164.839 360.65 168.63L365.45 172.058C395.6 193.594 395.6 238.405 365.45 259.942L360.65 263.371C355.343 267.16 352.503 273.524 353.223 280.004L354.92 295.286C358.742 329.681 329.681 358.742 295.286 354.92L280.004 353.223C273.524 352.503 267.16 355.343 263.371 360.65L259.942 365.45C238.405 395.6 193.595 395.6 172.058 365.45L168.63 360.65C164.839 355.343 158.476 352.503 151.994 353.223L136.712 354.92C102.319 358.742 73.2578 329.681 77.0792 295.286L78.7773 280.004C79.4973 273.524 76.656 267.16 71.3496 263.371L66.5496 259.942C36.3988 238.405 36.3988 193.595 66.5496 172.058L71.3496 168.63C76.656 164.839 79.4973 158.476 78.7773 151.995L77.0792 136.712C73.2578 102.319 102.319 73.2578 136.712 77.0792L151.995 78.7774C158.476 79.4974 164.839 76.6561 168.63 71.3497L172.058 66.5496ZM282.728 167.272C289.757 174.302 289.757 185.699 282.728 192.728L213.988 261.468C205.159 270.299 190.841 270.299 182.012 261.468L149.272 228.728C142.243 221.699 142.243 210.301 149.272 203.272C156.302 196.243 167.698 196.243 174.728 203.272L198 226.544L257.272 167.272C264.301 160.243 275.699 160.243 282.728 167.272Z" fill="#053A3E"/>
</g>
<defs>
<clipPath id="clip0_123_103">
<rect width="432" height="432" fill="white"/>
</clipPath>
</defs>
</svg>
