<svg width="414" height="414" viewBox="0 0 414 414" fill="none" xmlns="http://www.w3.org/2000/svg">
<path d="M365.446 378.681H48.5544C21.8514 378.681 0 356.829 0 330.126V83.8738C0 57.1708 21.8514 35.3194 48.5544 35.3194H365.439C392.149 35.3194 414 57.1708 414 83.8738V330.126C414 356.829 392.149 378.681 365.446 378.681Z" fill="black"/>
<path d="M414 111.735V83.8738C414 57.1643 392.149 35.3194 365.446 35.3194H48.5544C21.8514 35.3194 0 57.1708 0 83.8738V111.735H414Z" fill="black"/>
<path d="M47.2218 84.3784C53.2166 84.3784 58.0763 79.5186 58.0763 73.5238C58.0763 67.529 53.2166 62.6693 47.2218 62.6693C41.2269 62.6693 36.3672 67.529 36.3672 73.5238C36.3672 79.5186 41.2269 84.3784 47.2218 84.3784Z" fill="#E9EDF1"/>
<path d="M78.1426 84.3784C84.1375 84.3784 88.9972 79.5186 88.9972 73.5238C88.9972 67.529 84.1375 62.6693 78.1426 62.6693C72.1478 62.6693 67.2881 67.529 67.2881 73.5238C67.2881 79.5186 72.1478 84.3784 78.1426 84.3784Z" fill="#FF9900"/>
<path d="M109.082 84.3784C115.077 84.3784 119.937 79.5186 119.937 73.5238C119.937 67.529 115.077 62.6693 109.082 62.6693C103.087 62.6693 98.2275 67.529 98.2275 73.5238C98.2275 79.5186 103.087 84.3784 109.082 84.3784Z" fill="#30D1E2"/>
<path d="M371.785 70.4835H347.204V76.0013H371.785V70.4835Z" fill="white"/>
<path d="M364.579 89.8251L360.413 86.2026L371.455 73.5238L360.413 60.8515L364.579 57.229L378.784 73.5238L364.579 89.8251Z" fill="white"/>
<path d="M306.671 90.8018H168.46C158.957 90.8018 151.182 83.0264 151.182 73.5238C151.182 64.0212 158.957 56.2458 168.46 56.2458H306.671C316.174 56.2458 323.949 64.0212 323.949 73.5238C323.949 83.0264 316.174 90.8018 306.671 90.8018Z" fill="white"/>
<path d="M171.959 81.7909L168.155 66.2335H171.183L172.658 73.2974C173.046 75.1928 173.414 77.1787 173.673 78.7182H173.718C173.977 77.0816 174.411 75.238 174.85 73.2715L176.532 66.2335H179.508L181.06 73.3944C181.449 75.238 181.772 76.9717 181.998 78.6535H182.05C182.322 76.9393 182.697 75.1733 183.105 73.2715L184.722 66.2335H187.613L183.428 81.7909H180.388L178.77 74.4683C178.369 72.7023 178.104 71.2209 177.917 69.5326H177.865C177.593 71.1951 177.296 72.7023 176.83 74.4683L175.032 81.7909H171.959Z" fill="black"/>
<path d="M192.219 81.7909L188.415 66.2335H191.442L192.917 73.2974C193.305 75.1928 193.674 77.1787 193.933 78.7182H193.978C194.237 77.0816 194.67 75.238 195.11 73.2715L196.792 66.2335H199.768L201.32 73.3944C201.708 75.238 202.032 76.9717 202.258 78.6535H202.31C202.582 76.9393 202.957 75.1733 203.364 73.2715L204.981 66.2335H207.873L203.688 81.7909H200.647L199.03 74.4683C198.629 72.7023 198.364 71.2209 198.176 69.5326H198.125C197.853 71.1951 197.555 72.7023 197.09 74.4683L195.291 81.7909H192.219Z" fill="black"/>
<path d="M212.479 81.7909L208.676 66.2335H211.703L213.178 73.2974C213.566 75.1928 213.935 77.1787 214.194 78.7182H214.239C214.498 77.0816 214.931 75.238 215.371 73.2715L217.053 66.2335H220.028L221.581 73.3944C221.969 75.238 222.292 76.9717 222.519 78.6535H222.571C222.842 76.9393 223.218 75.1733 223.625 73.2715L225.242 66.2335H228.134L223.949 81.7909H220.908L219.291 74.4683C218.89 72.7023 218.625 71.2209 218.437 69.5326H218.385C218.114 71.1951 217.816 72.7023 217.35 74.4683L215.552 81.7909H212.479Z" fill="black"/>
<path d="M228.075 80.219C228.075 79.1646 228.819 78.3948 229.835 78.3948C230.87 78.3948 231.594 79.1387 231.594 80.219C231.594 81.2669 230.896 82.0496 229.835 82.0496C228.8 82.0496 228.075 81.2669 228.075 80.219Z" fill="black"/>
<path d="M337.914 296.068H74.9143C67.43 296.068 61.3105 289.949 61.3105 282.464V201.65C61.3105 194.166 67.43 188.047 74.9143 188.047H337.914C345.399 188.047 351.518 194.166 351.518 201.65V282.464C351.525 289.949 345.399 296.068 337.914 296.068Z" fill="#30D1E2"/>
<path d="M89.0557 221.723H98.3383V254.836H114.588V262.599H89.0557V221.723Z" fill="white"/>
<path d="M155.205 241.731C155.205 255.134 147.074 263.265 135.126 263.265C122.998 263.265 115.901 254.112 115.901 242.468C115.901 230.21 123.716 221.057 135.793 221.057C148.349 221.057 155.205 230.456 155.205 241.731ZM125.663 242.281C125.663 250.282 129.428 255.917 135.612 255.917C141.854 255.917 145.431 249.978 145.431 242.028C145.431 234.699 141.919 228.379 135.547 228.379C129.305 228.386 125.663 234.337 125.663 242.281Z" fill="white"/>
<path d="M195.46 260.723C192.614 261.693 187.212 263.019 181.811 263.019C174.359 263.019 168.957 261.143 165.199 257.502C161.434 253.989 159.377 248.652 159.442 242.643C159.494 229.058 169.384 221.296 182.788 221.296C188.073 221.296 192.135 222.331 194.127 223.301L192.187 230.695C189.942 229.725 187.161 228.936 182.665 228.936C174.967 228.936 169.145 233.302 169.145 242.151C169.145 250.58 174.417 255.554 181.998 255.554C184.12 255.554 185.828 255.315 186.546 254.953V246.401H180.239V239.189H195.46V260.723Z" fill="white"/>
<path d="M212.014 221.723V262.599H202.731V221.723H212.014Z" fill="white"/>
<path d="M220.035 262.599V221.723H230.825L239.318 236.698C241.744 241 244.17 246.097 245.994 250.703H246.175C245.561 245.314 245.38 239.79 245.38 233.671V221.723H253.873V262.599H244.17L235.437 246.828C233.011 242.475 230.346 237.19 228.341 232.403L228.16 232.455C228.406 237.856 228.529 243.613 228.529 250.289V262.599H220.035Z" fill="white"/>
<path d="M302.415 242.106C309.296 242.106 314.874 236.528 314.874 229.647C314.874 222.766 309.296 217.188 302.415 217.188C295.534 217.188 289.956 222.766 289.956 229.647C289.956 236.528 295.534 242.106 302.415 242.106Z" fill="white"/>
<path d="M281.055 266.926C281.055 255.127 290.622 245.567 302.414 245.567C314.213 245.567 323.774 255.134 323.774 266.926H281.055Z" fill="white"/>
<path d="M414 111.806H0V115.04H414V111.806Z" fill="#666666"/>
</svg>
