<svg width="120" height="120" viewBox="0 0 120 120" fill="none" xmlns="http://www.w3.org/2000/svg">
<path fill-rule="evenodd" clip-rule="evenodd" d="M46.25 20C46.25 12.4061 52.406 6.25 60 6.25C67.594 6.25 73.75 12.4061 73.75 20C73.75 27.5939 67.594 33.75 60 33.75C52.406 33.75 46.25 27.5939 46.25 20Z" fill="#053A3E"/>
<path d="M41.1155 57.8705L30.239 54.245C27.1103 53.202 25 50.274 25 46.9763C25 42.0985 29.4976 38.4625 34.2672 39.4846L43.7551 41.5177C44.2827 41.6307 44.5465 41.6872 44.808 41.7413C54.83 43.8143 65.17 43.8143 75.192 41.7413C75.4535 41.6872 75.7175 41.6307 76.245 41.5177L85.7325 39.4845C90.5025 38.4625 95 42.0985 95 46.9763C95 50.274 92.8895 53.202 89.761 54.245L78.8845 57.8705C77.57 58.3085 76.913 58.5275 76.4185 58.833C74.7355 59.8715 73.823 61.805 74.091 63.765C74.17 64.3405 74.4185 64.987 74.916 66.28L81.15 82.4885C83.0055 87.313 79.444 92.4985 74.2745 92.4985C71.6315 92.4985 69.1905 91.0825 67.879 88.787L60 74.9985L52.121 88.787C50.8095 91.0825 48.3686 92.4985 45.7253 92.4985C40.5559 92.4985 36.9944 87.313 38.8502 82.4885L45.0841 66.28C45.5814 64.987 45.8302 64.3405 45.9089 63.765C46.1768 61.805 45.2644 59.8715 43.5813 58.833C43.0871 58.5275 42.4299 58.3085 41.1155 57.8705Z" fill="#053A3E"/>
<path d="M60 109.999C87.614 109.999 110 99.9255 110 87.499C110 78.89 99.2545 71.41 83.47 67.627L88.15 79.795C91.895 89.5325 84.7075 99.998 74.2745 99.998C68.94 99.998 64.014 97.1395 61.3675 92.5075L60 90.1145L58.6325 92.5075C55.986 97.1395 51.06 99.998 45.7253 99.998C35.2925 99.998 28.1049 89.5325 31.85 79.795L36.5301 67.627C20.7453 71.41 10 78.89 10 87.499C10 99.9255 32.3857 109.999 60 109.999Z" fill="#053A3E"/>
</svg>
